<svg width="359" height="181" viewBox="0 0 359 181" fill="none" xmlns="http://www.w3.org/2000/svg">
<rect x="172.572" width="32" height="85" rx="16" transform="rotate(30.2277 172.572 0)" fill="url(#paint0_linear_1_14)"/>
<path d="M191.296 45.4909C195.745 37.8558 205.54 35.2727 213.175 39.7213V39.7213C220.811 44.17 223.394 53.9658 218.945 61.6009L192.263 107.395C187.814 115.03 178.018 117.613 170.383 113.164V113.164C162.748 108.715 160.165 98.9196 164.614 91.2845L191.296 45.4909Z" fill="url(#paint1_linear_1_14)"/>
<circle cx="136" cy="99.2764" r="16" fill="url(#paint2_linear_1_14)"/>
<circle cx="222" cy="99.2764" r="16" fill="url(#paint3_linear_1_14)"/>
<path d="M88.7575 139.537C90.1441 139.537 91.4333 139.678 92.625 139.96C93.8383 140.242 94.8783 140.577 95.745 140.967C96.6333 141.357 97.2616 141.704 97.63 142.007L95.3875 145.582C94.9541 145.192 94.1741 144.759 93.0475 144.282C91.9208 143.784 90.6641 143.535 89.2775 143.535C87.7608 143.535 86.4716 143.838 85.41 144.445C84.3483 145.03 83.8175 145.886 83.8175 147.012C83.8175 148.139 84.3591 149.038 85.4425 149.71C86.5475 150.36 88.0208 150.902 89.8625 151.335C91.3358 151.682 92.7116 152.147 93.99 152.732C95.29 153.317 96.3408 154.13 97.1425 155.17C97.9441 156.188 98.345 157.553 98.345 159.265C98.345 160.825 98.02 162.157 97.37 163.262C96.72 164.346 95.8425 165.223 94.7375 165.895C93.6325 166.545 92.3975 167.022 91.0325 167.325C89.6675 167.628 88.2808 167.78 86.8725 167.78C85.2258 167.78 83.7416 167.607 82.42 167.26C81.0983 166.935 79.9825 166.545 79.0725 166.09C78.1841 165.613 77.5341 165.202 77.1225 164.855L79.365 160.825C79.9283 161.367 80.8491 161.941 82.1275 162.547C83.4275 163.154 84.9008 163.457 86.5475 163.457C88.3675 163.457 89.8408 163.078 90.9675 162.32C92.0941 161.54 92.6575 160.532 92.6575 159.297C92.6575 158.366 92.3866 157.618 91.845 157.055C91.3033 156.492 90.5775 156.037 89.6675 155.69C88.7575 155.343 87.7608 155.04 86.6775 154.78C85.6375 154.542 84.6191 154.227 83.6225 153.837C82.6475 153.447 81.7483 152.949 80.925 152.342C80.1233 151.714 79.4841 150.956 79.0075 150.067C78.5308 149.157 78.2925 148.096 78.2925 146.882C78.2925 145.344 78.78 144.033 79.755 142.95C80.73 141.845 82.0083 141 83.59 140.415C85.1716 139.83 86.8941 139.537 88.7575 139.537ZM102.18 140.317H107.413V129.365H113.035V140.317H119.893V145.16H113.035V158.355C113.035 159.915 113.306 161.063 113.848 161.8C114.411 162.537 115.159 162.905 116.09 162.905C116.914 162.905 117.553 162.753 118.008 162.45C118.463 162.147 118.734 161.941 118.82 161.832L121.063 165.992C120.933 166.101 120.586 166.307 120.023 166.61C119.46 166.913 118.734 167.184 117.845 167.423C116.957 167.661 115.917 167.78 114.725 167.78C112.645 167.78 110.901 167.152 109.493 165.895C108.106 164.617 107.413 162.602 107.413 159.85V145.16H102.18V140.317ZM138.324 167.78C135.572 167.78 133.124 167.163 130.979 165.928C128.856 164.692 127.187 163.024 125.974 160.922C124.761 158.799 124.154 156.405 124.154 153.74C124.154 151.075 124.761 148.67 125.974 146.525C127.187 144.38 128.856 142.679 130.979 141.422C133.124 140.166 135.572 139.537 138.324 139.537C141.054 139.537 143.47 140.166 145.572 141.422C147.695 142.679 149.352 144.38 150.544 146.525C151.736 148.67 152.332 151.075 152.332 153.74C152.332 156.405 151.736 158.799 150.544 160.922C149.352 163.024 147.695 164.692 145.572 165.928C143.47 167.163 141.054 167.78 138.324 167.78ZM138.324 162.938C140.057 162.938 141.563 162.537 142.842 161.735C144.142 160.933 145.149 159.839 145.864 158.452C146.579 157.044 146.937 155.462 146.937 153.707C146.937 151.952 146.579 150.371 145.864 148.962C145.149 147.554 144.142 146.438 142.842 145.615C141.563 144.792 140.057 144.38 138.324 144.38C136.569 144.38 135.042 144.792 133.742 145.615C132.442 146.438 131.423 147.554 130.687 148.962C129.972 150.371 129.614 151.952 129.614 153.707C129.614 155.462 129.972 157.044 130.687 158.452C131.423 159.839 132.442 160.933 133.742 161.735C135.042 162.537 136.569 162.938 138.324 162.938ZM173.518 139.537C175.273 139.537 176.974 139.906 178.621 140.642C180.289 141.379 181.654 142.549 182.716 144.152C183.799 145.734 184.341 147.803 184.341 150.36V167H178.621V151.465C178.621 148.822 178.003 146.904 176.768 145.712C175.533 144.499 173.941 143.892 171.991 143.892C170.713 143.892 169.478 144.261 168.286 144.997C167.116 145.712 166.152 146.709 165.393 147.987C164.635 149.244 164.256 150.674 164.256 152.277V167H158.601V140.317H164.256V145.062C164.451 144.326 164.982 143.524 165.848 142.657C166.715 141.791 167.82 141.054 169.163 140.447C170.507 139.841 171.958 139.537 173.518 139.537ZM195.278 154.812C195.3 156.416 195.647 157.878 196.318 159.2C196.99 160.522 197.987 161.572 199.308 162.352C200.652 163.132 202.298 163.522 204.248 163.522C205.895 163.522 207.292 163.284 208.441 162.807C209.611 162.309 210.564 161.724 211.301 161.052C212.037 160.359 212.568 159.742 212.893 159.2L215.656 162.612C214.941 163.652 214.063 164.562 213.023 165.342C212.005 166.122 210.759 166.718 209.286 167.13C207.812 167.563 206.014 167.78 203.891 167.78C201.031 167.78 198.55 167.173 196.448 165.96C194.368 164.725 192.765 163.024 191.638 160.857C190.512 158.669 189.948 156.167 189.948 153.35C189.948 150.75 190.479 148.41 191.541 146.33C192.602 144.228 194.141 142.571 196.156 141.357C198.192 140.144 200.641 139.537 203.501 139.537C206.122 139.537 208.397 140.09 210.326 141.195C212.276 142.278 213.782 143.817 214.843 145.81C215.927 147.803 216.468 150.187 216.468 152.96C216.468 153.133 216.457 153.447 216.436 153.902C216.414 154.336 216.392 154.639 216.371 154.812H195.278ZM211.073 150.555C211.052 149.667 210.792 148.692 210.293 147.63C209.817 146.568 209.037 145.658 207.953 144.9C206.87 144.142 205.407 143.762 203.566 143.762C201.659 143.762 200.121 144.131 198.951 144.867C197.802 145.604 196.957 146.503 196.416 147.565C195.874 148.605 195.56 149.602 195.473 150.555H211.073ZM244.196 153.772C244.196 156.567 244.792 158.799 245.984 160.467C247.197 162.114 249.05 162.938 251.541 162.938C254.055 162.938 255.907 162.114 257.099 160.467C258.29 158.799 258.886 156.567 258.886 153.772V140.317H264.476V154.552C264.476 157.152 263.967 159.449 262.949 161.442C261.952 163.436 260.49 164.996 258.561 166.122C256.655 167.227 254.315 167.78 251.541 167.78C248.79 167.78 246.45 167.227 244.521 166.122C242.615 164.996 241.152 163.436 240.134 161.442C239.137 159.449 238.639 157.152 238.639 154.552V140.317H244.196V153.772ZM272.778 167V140.317H278.433V167H272.778ZM275.671 131.185C274.652 131.185 273.775 130.827 273.038 130.112C272.323 129.376 271.966 128.498 271.966 127.48C271.966 126.462 272.323 125.584 273.038 124.847C273.775 124.111 274.652 123.742 275.671 123.742C276.342 123.742 276.96 123.916 277.523 124.262C278.108 124.609 278.574 125.064 278.921 125.627C279.267 126.169 279.441 126.787 279.441 127.48C279.441 128.498 279.072 129.376 278.336 130.112C277.599 130.827 276.711 131.185 275.671 131.185Z" fill="black"/>
<defs>
<linearGradient id="paint0_linear_1_14" x1="188.572" y1="0" x2="188.572" y2="85" gradientUnits="userSpaceOnUse">
<stop stop-color="#F5BABA"/>
<stop offset="0.9998" stop-color="#F40B0B"/>
<stop offset="0.9999" stop-color="#FF9E9E"/>
</linearGradient>
<linearGradient id="paint1_linear_1_14" x1="213.175" y1="39.7213" x2="170.383" y2="113.164" gradientUnits="userSpaceOnUse">
<stop stop-color="#F5BABA"/>
<stop offset="0.9998" stop-color="#F40B0B"/>
<stop offset="0.9999" stop-color="#FF9E9E"/>
</linearGradient>
<linearGradient id="paint2_linear_1_14" x1="136" y1="83.2764" x2="136" y2="115.276" gradientUnits="userSpaceOnUse">
<stop stop-color="#F5BABA"/>
<stop offset="0.9998" stop-color="#F40B0B"/>
<stop offset="0.9999" stop-color="#FF9E9E"/>
</linearGradient>
<linearGradient id="paint3_linear_1_14" x1="222" y1="83.2764" x2="222" y2="115.276" gradientUnits="userSpaceOnUse">
<stop stop-color="#F5BABA"/>
<stop offset="0.9998" stop-color="#F40B0B"/>
<stop offset="0.9999" stop-color="#FF9E9E"/>
</linearGradient>
</defs>
</svg>
