<svg width="290" height="60" viewBox="0 0 290 60" fill="none" xmlns="http://www.w3.org/2000/svg">
<rect width="14.5805" height="38.6219" rx="7.29025" transform="matrix(0.865262 0.50132 -0.505558 0.862793 23.9878 2.5)" fill="url(#paint0_linear_1_23)"/>
<path d="M32.5213 23.1578C34.5569 19.6839 39.0311 18.5041 42.5149 20.5225V20.5225C45.9987 22.541 47.1728 26.9934 45.1373 30.4673L32.9829 51.21C30.9474 54.6839 26.4731 55.8637 22.9893 53.8453V53.8453C19.5055 51.8268 18.3315 47.3744 20.367 43.9005L32.5213 23.1578Z" fill="url(#paint1_linear_1_23)"/>
<ellipse cx="7.30062" cy="47.5441" rx="7.30062" ry="7.25959" fill="url(#paint2_linear_1_23)"/>
<ellipse cx="46.5415" cy="47.5441" rx="7.30062" ry="7.25959" fill="url(#paint3_linear_1_23)"/>
<path d="M81.0996 18.5375C82.4862 18.5375 83.7754 18.6783 84.9671 18.96C86.1804 19.2417 87.2204 19.5775 88.0871 19.9675C88.9754 20.3575 89.6037 20.7042 89.9721 21.0075L87.7296 24.5825C87.2962 24.1925 86.5162 23.7592 85.3896 23.2825C84.2629 22.7842 83.0062 22.535 81.6196 22.535C80.1029 22.535 78.8137 22.8383 77.7521 23.445C76.6904 24.03 76.1596 24.8858 76.1596 26.0125C76.1596 27.1392 76.7012 28.0383 77.7846 28.71C78.8896 29.36 80.3629 29.9017 82.2046 30.335C83.6779 30.6817 85.0537 31.1475 86.3321 31.7325C87.6321 32.3175 88.6829 33.13 89.4846 34.17C90.2862 35.1883 90.6871 36.5533 90.6871 38.265C90.6871 39.825 90.3621 41.1575 89.7121 42.2625C89.0621 43.3458 88.1846 44.2233 87.0796 44.895C85.9746 45.545 84.7396 46.0217 83.3746 46.325C82.0096 46.6283 80.6229 46.78 79.2146 46.78C77.5679 46.78 76.0837 46.6067 74.7621 46.26C73.4404 45.935 72.3246 45.545 71.4146 45.09C70.5262 44.6133 69.8762 44.2017 69.4646 43.855L71.7071 39.825C72.2704 40.3667 73.1912 40.9408 74.4696 41.5475C75.7696 42.1542 77.2429 42.4575 78.8896 42.4575C80.7096 42.4575 82.1829 42.0783 83.3096 41.32C84.4362 40.54 84.9996 39.5325 84.9996 38.2975C84.9996 37.3658 84.7287 36.6183 84.1871 36.055C83.6454 35.4917 82.9196 35.0367 82.0096 34.69C81.0996 34.3433 80.1029 34.04 79.0196 33.78C77.9796 33.5417 76.9612 33.2275 75.9646 32.8375C74.9896 32.4475 74.0904 31.9492 73.2671 31.3425C72.4654 30.7142 71.8262 29.9558 71.3496 29.0675C70.8729 28.1575 70.6346 27.0958 70.6346 25.8825C70.6346 24.3442 71.1221 23.0333 72.0971 21.95C73.0721 20.845 74.3504 20 75.9321 19.415C77.5137 18.83 79.2362 18.5375 81.0996 18.5375ZM94.5226 19.3175H99.7551V8.365H105.378V19.3175H112.235V24.16H105.378V37.355C105.378 38.915 105.648 40.0633 106.19 40.8C106.753 41.5367 107.501 41.905 108.433 41.905C109.256 41.905 109.895 41.7533 110.35 41.45C110.805 41.1467 111.076 40.9408 111.163 40.8325L113.405 44.9925C113.275 45.1008 112.928 45.3067 112.365 45.61C111.802 45.9133 111.076 46.1842 110.188 46.4225C109.299 46.6608 108.259 46.78 107.068 46.78C104.988 46.78 103.243 46.1517 101.835 44.895C100.448 43.6167 99.7551 41.6017 99.7551 38.85V24.16H94.5226V19.3175ZM130.666 46.78C127.914 46.78 125.466 46.1625 123.321 44.9275C121.198 43.6925 119.529 42.0242 118.316 39.9225C117.103 37.7992 116.496 35.405 116.496 32.74C116.496 30.075 117.103 27.67 118.316 25.525C119.529 23.38 121.198 21.6792 123.321 20.4225C125.466 19.1658 127.914 18.5375 130.666 18.5375C133.396 18.5375 135.812 19.1658 137.914 20.4225C140.037 21.6792 141.694 23.38 142.886 25.525C144.078 27.67 144.674 30.075 144.674 32.74C144.674 35.405 144.078 37.7992 142.886 39.9225C141.694 42.0242 140.037 43.6925 137.914 44.9275C135.812 46.1625 133.396 46.78 130.666 46.78ZM130.666 41.9375C132.399 41.9375 133.905 41.5367 135.184 40.735C136.484 39.9333 137.491 38.8392 138.206 37.4525C138.921 36.0442 139.279 34.4625 139.279 32.7075C139.279 30.9525 138.921 29.3708 138.206 27.9625C137.491 26.5542 136.484 25.4383 135.184 24.615C133.905 23.7917 132.399 23.38 130.666 23.38C128.911 23.38 127.384 23.7917 126.084 24.615C124.784 25.4383 123.765 26.5542 123.029 27.9625C122.314 29.3708 121.956 30.9525 121.956 32.7075C121.956 34.4625 122.314 36.0442 123.029 37.4525C123.765 38.8392 124.784 39.9333 126.084 40.735C127.384 41.5367 128.911 41.9375 130.666 41.9375ZM165.861 18.5375C167.616 18.5375 169.316 18.9058 170.963 19.6425C172.631 20.3792 173.996 21.5492 175.058 23.1525C176.141 24.7342 176.683 26.8033 176.683 29.36V46H170.963V30.465C170.963 27.8217 170.346 25.9042 169.111 24.7125C167.876 23.4992 166.283 22.8925 164.333 22.8925C163.055 22.8925 161.82 23.2608 160.628 23.9975C159.458 24.7125 158.494 25.7092 157.736 26.9875C156.977 28.2442 156.598 29.6742 156.598 31.2775V46H150.943V19.3175H156.598V24.0625C156.793 23.3258 157.324 22.5242 158.191 21.6575C159.057 20.7908 160.162 20.0542 161.506 19.4475C162.849 18.8408 164.301 18.5375 165.861 18.5375ZM187.62 33.8125C187.642 35.4158 187.989 36.8783 188.66 38.2C189.332 39.5217 190.329 40.5725 191.65 41.3525C192.994 42.1325 194.64 42.5225 196.59 42.5225C198.237 42.5225 199.635 42.2842 200.783 41.8075C201.953 41.3092 202.906 40.7242 203.643 40.0525C204.38 39.3592 204.91 38.7417 205.235 38.2L207.998 41.6125C207.283 42.6525 206.405 43.5625 205.365 44.3425C204.347 45.1225 203.101 45.7183 201.628 46.13C200.155 46.5633 198.356 46.78 196.233 46.78C193.373 46.78 190.892 46.1733 188.79 44.96C186.71 43.725 185.107 42.0242 183.98 39.8575C182.854 37.6692 182.29 35.1667 182.29 32.35C182.29 29.75 182.821 27.41 183.883 25.33C184.945 23.2283 186.483 21.5708 188.498 20.3575C190.535 19.1442 192.983 18.5375 195.843 18.5375C198.465 18.5375 200.74 19.09 202.668 20.195C204.618 21.2783 206.124 22.8167 207.185 24.81C208.269 26.8033 208.81 29.1867 208.81 31.96C208.81 32.1333 208.8 32.4475 208.778 32.9025C208.756 33.3358 208.735 33.6392 208.713 33.8125H187.62ZM203.415 29.555C203.394 28.6667 203.134 27.6917 202.635 26.63C202.159 25.5683 201.379 24.6583 200.295 23.9C199.212 23.1417 197.75 22.7625 195.908 22.7625C194.001 22.7625 192.463 23.1308 191.293 23.8675C190.145 24.6042 189.3 25.5033 188.758 26.565C188.216 27.605 187.902 28.6017 187.815 29.555H203.415ZM236.538 32.7725C236.538 35.5675 237.134 37.7992 238.326 39.4675C239.539 41.1142 241.392 41.9375 243.883 41.9375C246.397 41.9375 248.249 41.1142 249.441 39.4675C250.633 37.7992 251.228 35.5675 251.228 32.7725V19.3175H256.818V33.5525C256.818 36.1525 256.309 38.4492 255.291 40.4425C254.294 42.4358 252.832 43.9958 250.903 45.1225C248.997 46.2275 246.657 46.78 243.883 46.78C241.132 46.78 238.792 46.2275 236.863 45.1225C234.957 43.9958 233.494 42.4358 232.476 40.4425C231.479 38.4492 230.981 36.1525 230.981 33.5525V19.3175H236.538V32.7725ZM265.12 46V19.3175H270.775V46H265.12ZM268.013 10.185C266.994 10.185 266.117 9.8275 265.38 9.1125C264.665 8.37583 264.308 7.49833 264.308 6.48C264.308 5.46167 264.665 4.58417 265.38 3.8475C266.117 3.11083 266.994 2.7425 268.013 2.7425C268.684 2.7425 269.302 2.91583 269.865 3.2625C270.45 3.60917 270.916 4.06417 271.263 4.6275C271.609 5.16917 271.783 5.78667 271.783 6.48C271.783 7.49833 271.414 8.37583 270.678 9.1125C269.941 9.8275 269.053 10.185 268.013 10.185Z" fill="black"/>
<defs>
<linearGradient id="paint0_linear_1_23" x1="7.29025" y1="0" x2="7.29025" y2="38.6219" gradientUnits="userSpaceOnUse">
<stop stop-color="#F5BABA"/>
<stop offset="0.9998" stop-color="#F40B0B"/>
<stop offset="0.9999" stop-color="#FF9E9E"/>
</linearGradient>
<linearGradient id="paint1_linear_1_23" x1="42.5149" y1="20.5225" x2="23.1532" y2="53.9402" gradientUnits="userSpaceOnUse">
<stop stop-color="#F5BABA"/>
<stop offset="0.9998" stop-color="#F40B0B"/>
<stop offset="0.9999" stop-color="#FF9E9E"/>
</linearGradient>
<linearGradient id="paint2_linear_1_23" x1="7.30062" y1="40.2845" x2="7.30062" y2="54.8037" gradientUnits="userSpaceOnUse">
<stop stop-color="#F5BABA"/>
<stop offset="0.9998" stop-color="#F40B0B"/>
<stop offset="0.9999" stop-color="#FF9E9E"/>
</linearGradient>
<linearGradient id="paint3_linear_1_23" x1="46.5415" y1="40.2845" x2="46.5415" y2="54.8037" gradientUnits="userSpaceOnUse">
<stop stop-color="#F5BABA"/>
<stop offset="0.9998" stop-color="#F40B0B"/>
<stop offset="0.9999" stop-color="#FF9E9E"/>
</linearGradient>
</defs>
</svg>
